<?xml version="1.0" encoding="UTF-8" standalone="no"?>
<svg
   xmlns:dc="http://purl.org/dc/elements/1.1/"
   xmlns:cc="http://creativecommons.org/ns#"
   xmlns:rdf="http://www.w3.org/1999/02/22-rdf-syntax-ns#"
   xmlns:svg="http://www.w3.org/2000/svg"
   xmlns="http://www.w3.org/2000/svg"
   version="1.1"
   id="svg2"
   viewBox="0 0 316.56445 63.392951"
   height="17.8909mm"
   width="89.341522mm">
  <defs
     id="defs4" />
  <metadata
     id="metadata7">
    <rdf:RDF>
      <cc:Work
         rdf:about="">
        <dc:format>image/svg+xml</dc:format>
        <dc:type
           rdf:resource="http://purl.org/dc/dcmitype/StillImage" />
        <dc:title></dc:title>
      </cc:Work>
    </rdf:RDF>
  </metadata>
  <g
     transform="translate(-161.1029,-495.79516)"
     id="layer1">
    <path
       id="path4333"
       d="m 388.23376,495.79516 -10.5957,9.80274 c -6.75574,6.24952 -11.9546,10.04141 -14.34571,10.46484 -2.0625,0.36523 -11.90625,1.6006 -21.875,2.7461 -9.96875,1.1455 -18.82813,2.64951 -19.6875,3.34179 -2.4349,1.96145 -2.08737,16.73273 0.41602,17.69336 4.37578,1.67915 6.75278,0.724 8.47851,-3.40625 2.69389,-6.44739 7.55162,-9.58398 14.8379,-9.58398 5.39163,0 6.76303,0.55796 10.45507,4.25 2.65385,2.65385 4.25,5.47059 4.25,7.5 0,1.7875 0.70312,3.26059 1.5625,3.27539 0.85937,0.0148 14.5,0.85005 30.3125,1.85547 15.8125,1.00542 32.43498,1.83665 36.9375,1.84765 l 8.18555,0.0215 1.61328,-4.46289 c 1.9661,-5.43717 7.82278,-9.27721 14.1582,-9.28321 5.76156,-0.006 12.66189,5.59997 14.77539,12.00391 1.22735,3.71892 1.94871,4.32566 4.75,4 2.77522,-0.32264 3.44185,-1.18072 4.18164,-5.38281 0.48415,-2.75 0.91353,-7.88529 0.95313,-11.41016 l 0.0703,-6.4082 -10.9375,-9.76563 c -6.01563,-5.37141 -12.39298,-11.08368 -14.17187,-12.69336 -3.01321,-2.72656 -4.76526,-3.00772 -25.625,-4.11328 -12.31486,-0.65269 -26.05971,-1.43628 -30.54492,-1.74023 l -8.1543,-0.55274 z m -137.4414,0.16797 -30.47461,1.61719 c -29.18984,1.54926 -30.61376,1.74211 -33.75,4.58203 -1.80091,1.63076 -8.26679,7.42487 -14.36914,12.875 l -11.09571,9.91016 0.63672,10.21094 c 0.35041,5.61663 1.01804,10.82672 1.48243,11.57812 0.46439,0.7514 2.13983,1.36719 3.72461,1.36719 2.27129,0 3.34511,-1.21505 5.07031,-5.73242 5.08745,-13.3213 22.05184,-14.3479 27.72265,-1.67774 l 2.30274,5.14844 17.5,-0.75195 c 28.96142,-1.24252 56.91652,-3.11535 58.18359,-3.89844 0.65561,-0.40518 1.1914,-1.88394 1.1914,-3.28711 0,-1.40318 1.9125,-4.46328 4.25,-6.80078 3.69204,-3.69204 5.0654,-4.25 10.45703,-4.25 7.28628,0 12.14401,3.13659 14.8379,9.58398 1.72572,4.13025 4.10272,5.0854 8.47851,3.40625 2.46918,-0.94751 2.78561,-13.96794 0.41406,-17.0293 -1.16555,-1.50457 -6.32583,-2.54018 -20.3125,-4.07617 -10.3125,-1.1325 -20.15625,-2.38847 -21.875,-2.78906 -1.71874,-0.40058 -7.90624,-5.06115 -13.74999,-10.35742 l -10.625,-9.62891 z m 136.89062,5.57227 11.92969,0.22265 c 6.56214,0.12231 12.74768,0.5356 13.74414,0.91797 1.33601,0.51268 1.81054,2.9225 1.81054,9.17774 0,5.69983 -0.51257,8.6365 -1.5625,8.95508 -2.51415,0.76287 -39.21755,-1.01813 -40.77148,-1.97852 -2.47516,-1.52972 -1.5992,-2.85521 6.7168,-10.15625 l 8.13281,-7.13867 z m -136.38476,0.002 8.22656,7.2207 c 4.52412,3.97196 8.02079,7.8402 7.76953,8.59571 -0.25128,0.75551 -3.50398,1.75029 -7.22851,2.20898 -7.81832,0.96286 -33.08026,1.86555 -34.91211,1.24805 -2.07469,-0.69938 -1.54657,-17.32019 0.57617,-18.13477 0.99645,-0.38237 7.15806,-0.79622 13.6914,-0.91797 l 11.87696,-0.2207 z m 68.24413,0.31641 c -1.4693,0 -1.875,1.71231 -1.875,7.91601 0,4.35418 0.36114,8.27715 0.80078,8.7168 1.91587,1.91586 2.94922,-1.09418 2.94922,-8.58203 0,-6.32332 -0.4024,-8.05078 -1.875,-8.05078 z m -11.96875,0.89843 c -0.0481,0.0124 -0.0907,0.036 -0.1289,0.0742 -0.61159,0.61159 0.28165,4.17497 2.05273,8.17969 1.72602,3.90283 3.70812,7.09766 4.4043,7.09766 1.81021,0 1.64633,-0.71397 -2.05469,-8.96094 -1.75672,-3.91448 -3.55185,-6.57704 -4.27344,-6.39063 z m -89.02929,0.0625 0.79883,4.83204 c 0.43899,2.6573 0.80255,6.85869 0.81055,9.33593 l 0.0137,4.50391 -9.5625,0.80859 c -14.21715,1.2018 -26.43316,0.97848 -27.3457,-0.49804 -0.93467,-1.51232 1.03804,-4.61758 7.8496,-12.36133 l 4.875,-5.54297 11.2793,-0.53906 11.28125,-0.53907 z m 113.02929,0 c -1.17409,-0.004 -7.65625,12.27789 -7.65625,14.64063 0,0.35635 0.56946,0.64844 1.26563,0.64844 1.80771,0 7.75456,-13.97982 6.48633,-15.24805 -0.0264,-0.0264 -0.0578,-0.0409 -0.0957,-0.041 z m 88.96485,0 11.23437,0.53711 11.23633,0.53711 4.87891,5.54493 c 6.94527,7.89123 8.86099,10.87219 7.93945,12.36328 -0.77256,1.25002 -15.331,1.43529 -30.34766,0.38476 l -6.5625,-0.45898 0,-5.4043 c 0,-2.97189 0.36502,-7.22546 0.81055,-9.45312 l 0.81055,-4.05079 z m -78.29102,2.78907 c -1.5641,0 -12.08008,10.2725 -12.08008,11.80078 0,2.1598 3.89357,0.0215 8.49024,-4.66211 5.56417,-5.66948 6.30456,-7.13867 3.58984,-7.13867 z m -45.94336,0.28515 c -0.064,-0.005 -0.1187,5.1e-4 -0.16406,0.0156 -0.81672,0.27223 0.91097,3.04782 3.94727,6.3418 4.83715,5.24769 8.83977,7.47873 8.82617,4.91992 -0.009,-1.71662 -10.6262,-11.13057 -12.60938,-11.27735 z m -2.38672,24.71485 c -10.36214,0 -14.87348,10.50186 -8.01367,18.65429 6.66616,7.92229 19.26367,2.88972 19.26367,-7.69531 0,-6.72876 -4.34275,-10.95898 -11.25,-10.95898 z m 51.25,0 c -10.47309,0 -15.19587,11.3691 -7.89062,18.99414 4.63385,4.8367 10.56024,4.7796 15.48828,-0.14844 7.58849,-7.58847 3.04944,-18.8457 -7.59766,-18.8457 z m -158.74999,5 c -5.51002,0 -11.25,5.51977 -11.25,10.81836 0,5.54845 1.6921,8.66157 5.96875,10.98242 4.35512,2.36348 5.83654,2.37213 10.30664,0.0606 4.49871,-2.32637 6.22461,-5.38817 6.22461,-11.04297 0,-5.29859 -5.73998,-10.81836 -11.25,-10.81836 z m 266.24999,0 c -5.51003,0 -11.25,5.51977 -11.25,10.81836 0,5.53395 1.68223,8.64343 5.96875,11.0332 11.57546,6.45346 22.8376,-10.07284 12.68555,-18.61523 -2.16635,-1.82286 -5.40001,-3.23633 -7.4043,-3.23633 z"
       style="fill:#000000" />
  </g>
</svg>
